<svg width="193" height="37" viewBox="0 0 193 37" fill="none" xmlns="http://www.w3.org/2000/svg">
<path d="M160.602 3.7V7.4H170.084C175.566 7.4 179.513 7.50963 179.458 7.64667C179.43 7.7837 174.963 13.0733 169.591 19.4319L159.779 30.943V33.9852V37H176.224H192.668V33.3V29.6H182.664C177.156 29.6 172.661 29.5452 172.661 29.463C172.661 29.3807 177.101 24.0637 182.527 17.6504L192.394 5.97482V2.98741V0H176.498H160.602V3.7Z" fill="white"/>
<path d="M9.91561 6.5778C1.58376 8.7704 -2.36291 17.3489 1.47413 24.886C2.8719 27.5993 5.33857 29.7097 8.62746 30.9704C10.0252 31.5185 10.7652 31.6282 13.5608 31.6282C16.4112 31.6282 17.1512 31.5185 19.0423 30.8882C20.2482 30.4771 21.8652 29.8193 22.6052 29.3808L23.9756 28.6408L24.0578 23.6252L24.1126 18.6371H19.1793H14.246V20.9667V23.2963H16.4386H18.6312V24.2282C18.6312 25.1326 18.5489 25.2148 17.0689 25.763C14.8763 26.5852 12.0808 26.4208 10.3267 25.4067C5.14672 22.3645 5.4482 14.663 10.7926 12.1689C13.3141 10.9904 17.2608 11.4837 19.6178 13.2926C20.1386 13.7037 20.6593 13.9778 20.7963 13.923C20.906 13.8682 21.7556 12.9637 22.6875 11.8674L24.3867 9.8941L23.5097 9.18151C20.303 6.49558 14.5201 5.37188 9.91561 6.5778Z" fill="white"/>
<path d="M62.9763 6.46804C59.3586 7.34507 55.9052 9.89396 54.4252 12.8266C49.8482 21.8436 56.2341 31.7925 66.5941 31.7925C76.9541 31.7925 83.34 21.8436 78.763 12.8266C76.1867 7.75618 69.1978 4.93322 62.9763 6.46804ZM69.4719 12.0317C73.8845 14.0599 75.0904 20.3636 71.7741 23.9814C70.2667 25.6258 68.7319 26.311 66.7037 26.311C60.4823 26.311 57.1934 18.774 61.3045 13.9777C63.2504 11.7029 66.8956 10.8258 69.4719 12.0317Z" fill="white"/>
<path d="M28.4978 18.9111V31.5186H31.6497H34.8015V27.9556V24.3652L37.46 24.4474L40.1185 24.5297L41.9548 27.9556L43.7911 31.3815L47.3815 31.4637C49.3548 31.4911 50.9719 31.4637 50.9719 31.3815C50.9719 31.2993 49.9304 29.5726 48.6697 27.5993C47.3815 25.5986 46.2578 23.7623 46.1756 23.543C46.066 23.2415 46.2852 22.94 46.7511 22.6111C47.9571 21.8163 48.8067 20.8023 49.5741 19.1852C50.1771 17.8971 50.2867 17.2941 50.2867 15.0741C50.2867 12.7719 50.2045 12.2786 49.5193 10.8808C48.56 8.93485 46.8882 7.59189 44.4489 6.85189C42.8867 6.35856 41.9 6.30374 35.5963 6.30374H28.4978V18.9111ZM42.1741 11.7304C44.1748 12.7171 44.86 14.8823 43.9008 17.0474C43.106 18.8563 42.0371 19.2674 38.0904 19.2949L34.9385 19.3223L34.8563 15.266L34.7741 11.2371H38.0082C40.5571 11.2371 41.4341 11.3467 42.1741 11.7304Z" fill="white"/>
<path d="M83.3126 14.7451C83.3126 21.4873 83.3948 23.4881 83.7237 24.5844C84.6282 27.5992 87.1497 30.0659 90.3563 31.1347C92.6311 31.8747 97.6741 31.8473 99.6474 31.0525C102.854 29.7918 104.855 27.6814 105.842 24.6118C106.28 23.1592 106.335 21.9807 106.335 14.6355V6.30363H103.183H100.031V14.0325C100.031 18.5273 99.9215 22.2273 99.7571 22.8029C99.3734 24.1184 98.2497 25.4614 97.0985 25.9273C95.1252 26.7496 92.22 26.174 90.9045 24.7214C89.7808 23.4607 89.6437 22.4192 89.6163 14.1696V6.30363H86.4645H83.3126V14.7451Z" fill="white"/>
<path d="M110.994 18.9111V31.5186H114.146H117.298V27.983V24.4474L121.217 24.3378C125.657 24.2008 127.356 23.7074 129.302 22.063C131.769 19.9526 132.783 15.4852 131.659 11.8674C130.919 9.53782 128.973 7.6467 126.479 6.8793C124.835 6.35856 123.958 6.30374 117.819 6.30374H110.994V18.9111ZM124.04 11.7578C126.671 12.9637 126.753 17.2393 124.177 18.7467C123.437 19.1578 122.697 19.2674 120.34 19.2949L117.435 19.3223L117.353 15.266L117.27 11.2371H120.093C122.259 11.2371 123.19 11.3741 124.04 11.7578Z" fill="white"/>
<path d="M135.661 18.9111V31.5186H145.802H155.942V29.0519V26.5852L149.036 26.5304L142.102 26.4482L142.019 23.8993L141.937 21.3778H147.994H154.024V18.9111V16.4445L148.076 16.3897L142.102 16.3074L142.019 13.7586L141.937 11.2371H148.679H155.394V8.77041V6.30374H145.527H135.661V18.9111Z" fill="white"/>
</svg>
