<svg xmlns="http://www.w3.org/2000/svg" viewBox="0 0 150 150"><defs><style>.cls-1{fill:#fff;}</style></defs><g id="Mode_Isolation" data-name="Mode Isolation"><path class="cls-1" d="M91.25,60.63,82,58.53a31.5,31.5,0,0,1-5-1.36l-.67,0c-6.62,10.58-9.75,2.2-18.4,6.33l-.84.41-1.12.84A5.17,5.17,0,0,0,54,67.23c-3.58.74-6.65-.08-10.62-3.7,1.06-6.48,2.63-7.72,4.53-8.06l1.9-.15h.07c1.79-.19,3.79-.66,5.91-4,2.28-3.51-.13-1.62,3.19-4.61C64,42.31,61.06,30,77,33.58c1.27.26,1.17.58.46.66-4.7.54-7.42,0-10.1,6,5-3.67,5.42.82,9.76-1.82,8.66-6.13,17,.9,29.38-1.54,1.09-.18.64.63.11.84-5.18,2-10.62,3.37-20,2-3.94-.28-5.1.29-6.46,1.68,8.76-3.74,18.58,4.89,26,2.67a26.52,26.52,0,0,1-8,2.33C101.49,48,104.92,50,108.12,51l9.33-24.32a67.18,67.18,0,0,0-35.79-9.88c-24.55,0-49,15-49,41.77,0,17.67,13.48,27.1,29.5,30l4.49.81S86,91.47,96.4,81c1.11-1.12.76,3.09.76,4.74v.08a13.66,13.66,0,0,1-4.37,9.81c-.8.75-1.64,1.47-2.5,2.16-.61.48-1.24.94-1.87,1.38,2.32,1.25,2.88,5.33,2.88,5.33-1.61-1.77-5.78-3.46-5.78-3.46a38.67,38.67,0,0,1-3.69,1.87c1.44,1,2.33,3.26,2.76,4.71a6.24,6.24,0,0,1,.29,1.07c0,.11,0,.18,0,.18-.79-1.79-5-3.44-6.76-4-1.33.25-3,.49-4.17.68,3.25,2.25,3.48,7.46,3.48,7.46-1.41-3.51-8-6.12-9.25-6.59H65.74a19.9,19.9,0,0,1-.33,10.27c-.22-3.6-5.93-10.77-5.93-10.77h0a40.34,40.34,0,0,1-4.9-1.08,31.46,31.46,0,0,1,1.71,7.3s-9.05-8.62-18.4-12.24l-9.1,23.08a101.69,101.69,0,0,0,43.42,10.33c24.41,0,49-13.32,49-40.27C121.19,73.8,108.61,64.52,91.25,60.63Z"/></g></svg>